<svg width="515" height="110" viewBox="0 0 515 110" fill="none" xmlns="http://www.w3.org/2000/svg">
<path d="M14.08 77.776C14.464 75.536 17.024 69.648 19.84 64.656C20.736 63.056 24.832 56.72 25.728 55.504C26.56 54.352 31.04 48.464 31.232 48.144C31.36 48.016 32.128 47.056 32.896 46.096C33.664 45.072 34.688 43.856 35.2 43.28C35.648 42.768 36.416 41.808 36.928 41.232C37.44 40.592 38.272 39.632 38.784 39.056C39.36 38.416 39.808 37.84 39.872 37.712C39.872 37.584 40.192 37.392 40.512 37.392C40.768 37.328 41.024 37.136 41.024 37.008C41.024 36.56 42.176 35.536 42.432 35.792C42.496 35.856 42.56 35.856 42.56 35.664C42.432 35.088 42.56 34.704 42.88 34.896C43.072 34.96 43.392 34.832 43.584 34.576C43.904 34.128 44.032 34.128 44.416 34.448C44.8 34.768 44.8 34.704 44.352 34.192C44.096 33.808 43.968 33.616 44.16 33.68C44.352 33.808 44.48 33.744 44.48 33.552C44.48 33.36 45.248 32.4 46.208 31.504C47.104 30.608 47.808 30.096 47.68 30.416C47.488 30.928 47.488 30.928 48 30.48C48.32 30.224 48.64 30.096 48.768 30.16C48.896 30.288 48.96 30.224 48.96 30.032C48.96 29.904 49.28 29.392 49.728 29.008C50.176 28.624 50.304 28.304 50.112 28.304C49.792 28.304 49.792 28.24 50.048 27.92C50.24 27.664 50.496 27.472 50.624 27.472C50.752 27.472 51.264 27.216 51.776 26.896C52.544 26.448 52.544 26.384 52.032 26.512C51.392 26.704 51.328 26.704 51.712 26.32C51.904 26.064 52.16 25.872 52.288 26C52.416 26.064 52.544 25.936 52.544 25.68C52.544 25.424 52.672 25.296 52.8 25.424C52.992 25.488 52.992 25.744 52.928 26C52.8 26.256 52.928 26.32 53.184 26.192C53.568 26.064 53.568 25.936 53.376 25.488C53.184 25.104 53.184 24.976 53.44 25.04C53.632 25.104 53.76 24.976 53.76 24.848C53.696 24.656 53.888 24.528 54.08 24.528C54.272 24.528 54.4 24.656 54.272 24.848C54.208 24.976 54.4 24.912 54.72 24.592C55.104 24.272 55.296 23.888 55.232 23.696C55.04 23.248 55.36 23.248 55.808 23.696C56.064 23.952 56.192 23.888 56.192 23.568C56.192 23.312 56.32 22.992 56.512 22.864C56.704 22.736 56.768 22.864 56.64 23.12C56.512 23.44 56.576 23.504 56.832 23.44C57.408 23.248 58.56 24.784 58.432 25.68C58.368 26.512 58.24 26.64 51.392 33.616C50.368 34.704 49.536 35.664 49.536 35.792C49.536 35.856 48.64 36.88 47.616 37.904C46.592 38.992 45.44 40.208 45.056 40.72C44.672 41.232 43.136 43.152 41.6 45.008C40.064 46.928 38.016 49.424 37.12 50.64C36.224 51.856 35.392 52.944 35.328 53.008C34.816 53.52 28.864 62.032 24.704 68.432C21.952 72.528 19.648 75.984 19.584 76.048C19.264 76.304 18.176 77.968 18.176 78.16C18.176 78.352 23.04 77.84 23.488 77.584C23.616 77.456 23.68 77.52 23.68 77.648C23.68 77.776 23.936 77.904 24.256 77.904C24.512 77.904 24.704 77.776 24.64 77.648C24.576 77.52 24.832 77.456 25.28 77.456C25.728 77.392 26.368 77.392 26.816 77.328C27.264 77.264 27.584 77.328 27.584 77.52C27.584 77.712 27.648 77.712 27.84 77.456C27.968 77.264 28.288 77.136 28.544 77.264C28.8 77.328 28.928 77.328 28.864 77.2C28.736 77.072 29.12 76.944 29.568 76.944C30.08 76.944 31.104 76.88 31.872 76.816C32.64 76.688 34.56 76.56 36.16 76.496C37.76 76.368 39.744 76.24 40.448 76.176C41.216 76.112 42.048 76.24 42.24 76.368C42.432 76.624 42.56 76.56 42.56 76.368C42.56 76.176 42.688 76.048 42.88 76.048C43.008 76.048 43.072 76.24 42.944 76.432C42.752 76.688 42.816 76.688 43.136 76.432C43.392 76.24 43.648 76.112 43.776 76.24C43.84 76.304 44.096 76.304 44.352 76.112C44.544 75.92 44.8 75.856 44.864 75.984C45.12 76.176 50.048 76.24 50.368 76.048C50.56 75.92 51.136 75.92 51.776 76.048C52.48 76.176 52.864 76.176 52.864 75.984C52.864 75.792 52.928 75.792 53.12 75.92C53.248 76.112 54.016 76.176 54.912 76.048C55.744 75.984 56.64 75.984 56.896 76.112C57.216 76.176 58.048 76.24 58.752 76.112C59.648 76.048 60.096 76.048 59.968 76.24C59.904 76.368 60.096 76.496 60.416 76.496C60.736 76.432 61.44 76.496 62.016 76.624C62.528 76.752 63.296 76.944 63.744 77.008C64.192 77.136 64.512 77.328 64.512 77.648C64.512 78.16 64.192 78.16 61.376 78.16C58.048 78.16 53.376 78.48 50.624 78.992C50.112 79.12 49.216 79.248 48.64 79.248C47.68 79.376 46.272 79.568 45.056 79.76C44.672 79.824 43.84 79.952 43.264 80.08C42.624 80.144 41.856 80.272 41.472 80.336C41.088 80.4 40.192 80.528 39.488 80.592C38.848 80.72 37.888 80.912 37.376 81.04C36.928 81.168 36.48 81.232 36.416 81.168C36.288 81.104 34.112 81.424 31.424 81.872C28.8 82.32 25.856 82.768 24.96 82.832C24.064 82.96 23.232 83.088 23.104 83.152C22.976 83.216 21.568 83.472 19.904 83.728C16.576 84.176 16.064 84.304 15.232 84.496C14.912 84.56 13.888 84.752 12.864 84.944C9.536 85.52 6.08 86.352 4.416 87.056C1.984 87.952 1.344 88.08 1.024 87.632C0.832 87.44 0.576 86.736 0.448 86.096C0.192 85.008 0.256 84.816 0.704 84.304C0.96 83.984 1.216 83.856 1.216 83.984C1.216 84.112 1.344 84.048 1.536 83.728C1.856 83.216 3.456 82.32 3.456 82.64C3.456 82.768 3.584 82.704 3.712 82.448C3.968 82.064 4.736 81.744 8.576 80.464C11.456 79.504 11.328 79.568 11.008 80.016C10.88 80.272 10.88 80.272 11.264 80.016C11.456 79.824 11.776 79.76 11.904 79.888C12.032 80.016 12.032 79.952 11.904 79.76C11.776 79.504 11.904 79.376 12.288 79.376C12.608 79.376 12.928 79.44 12.992 79.44C13.248 79.696 13.952 78.672 14.08 77.776ZM46.016 32.016C45.632 32.464 45.504 32.656 45.632 32.528C45.824 32.4 46.144 32.336 46.4 32.4C46.784 32.528 46.784 32.464 46.528 32.272C46.208 32.08 46.272 31.952 46.784 31.824C47.232 31.696 47.296 31.568 47.04 31.44C46.848 31.376 46.4 31.632 46.016 32.016ZM45.056 33.168C44.928 33.296 44.8 33.488 44.8 33.616C44.8 34 44.992 33.936 45.184 33.424C45.248 33.168 45.248 33.104 45.056 33.168ZM41.728 36.368C41.6 36.368 41.472 36.496 41.472 36.624C41.472 36.816 41.536 36.944 41.6 36.944C41.664 36.944 41.792 36.816 41.856 36.624C41.984 36.496 41.92 36.368 41.728 36.368ZM85.4815 57.936C85.4815 57.488 86.3135 57.36 86.5055 57.744C86.6975 58.384 79.3375 65.488 73.9615 69.84C72.9375 70.672 71.9135 71.504 71.7855 71.632C70.7615 72.592 67.3055 75.024 67.1135 74.96C66.9855 74.896 66.8575 74.896 66.7295 75.088C66.4735 75.536 65.0655 75.856 64.2975 75.6C63.0175 75.28 62.5055 74.64 61.8655 72.656C60.9055 69.776 60.9055 66.512 61.7375 64.016C62.5055 61.84 63.7855 59.408 65.2575 57.296C66.2815 55.888 69.0975 52.816 70.0575 52.048C70.7615 51.472 72.0415 51.024 71.7855 51.472C71.6575 51.6 71.7215 51.792 71.7855 51.856C71.9135 51.856 72.2975 52.368 72.6815 52.88C73.2575 53.648 73.3215 53.904 73.0015 54.8C72.8735 55.376 71.8495 56.976 70.8255 58.32C69.8015 59.664 68.3935 61.712 67.6255 62.864C66.3455 65.04 64.1055 69.84 64.1055 70.544C64.1055 70.928 64.8095 70.928 65.4495 70.544C65.7055 70.352 65.7695 70.416 65.6415 70.608C65.3855 71.056 65.6415 70.992 66.0895 70.544C66.2815 70.352 67.0495 69.968 67.7535 69.648C68.4575 69.328 69.6095 68.56 70.3135 68.048C71.0175 67.472 71.7215 67.024 71.8495 67.024C72.0415 67.024 72.1695 66.896 72.1695 66.704C72.1695 66.576 72.2335 66.448 72.2975 66.576C72.4255 66.704 73.2575 66.128 74.1535 65.36C75.1135 64.528 75.8815 64.016 76.0735 64.144C76.2655 64.272 76.3295 64.208 76.2015 64.016C76.0735 63.888 76.1375 63.696 76.2015 63.696C76.3295 63.696 76.7775 63.44 77.1615 63.056C77.5455 62.736 78.0575 62.48 78.3135 62.48C78.5695 62.544 78.7615 62.416 78.7615 62.224C78.6975 62.096 79.2095 61.648 79.8495 61.328C80.5535 61.008 81.1935 60.56 81.3855 60.304C81.8975 59.664 83.1775 59.024 83.8175 59.024C84.2015 59.024 84.4575 58.768 84.5855 58.448C84.6495 58.064 84.8415 57.936 85.0975 58C85.2895 58.064 85.4815 58.064 85.4815 57.936ZM73.5775 49.232C72.9375 47.12 72.9375 46.352 73.5775 45.648C74.4735 44.688 76.2655 43.664 76.7135 43.856C76.9055 43.92 77.1615 43.856 77.3535 43.728C78.1215 42.96 81.3215 43.792 81.3215 44.816C81.3215 45.2 81.0655 45.392 80.4255 45.52C79.9135 45.584 78.9535 46.16 78.2495 46.8C76.1375 48.784 74.4735 50.128 74.1535 50.128C73.9615 50.128 73.7055 49.744 73.5775 49.232ZM108.325 50.96C108.581 50.704 108.709 50.768 108.837 51.152C108.965 51.472 108.709 51.92 108.005 52.624C107.429 53.136 106.469 54.224 105.829 54.992C104.357 56.656 100.581 60.496 94.1805 66.64C88.1645 72.528 88.1645 72.528 87.0765 73.04C86.0525 73.552 85.4765 73.616 84.4525 73.104C82.9165 72.464 80.6125 68.304 80.6125 66.064C80.6125 62.48 83.1725 56.016 85.7965 53.136C86.6285 52.176 86.8205 52.048 87.2045 52.368C87.5245 52.56 88.0365 52.816 88.4845 53.008C88.9325 53.136 89.3805 53.52 89.5085 53.776C89.8925 54.48 89.5725 56.528 88.9965 57.36C87.3965 59.664 85.1565 65.488 84.7725 68.432C84.7085 69.008 84.9005 69.008 85.5405 68.496C85.9245 68.24 86.3725 68.048 86.5005 68.112C86.6285 68.176 86.7565 68.112 86.7565 67.92C86.7565 67.728 86.8205 67.664 86.8845 67.728C86.9485 67.792 87.3965 67.536 87.9085 67.088C88.3565 66.64 88.8685 66.32 88.9965 66.448C89.1245 66.512 89.2525 66.384 89.2525 66.192C89.2525 65.744 91.8765 63.312 92.1325 63.504C92.2605 63.568 92.4525 63.376 92.6445 63.056C93.0925 62.224 95.5885 60.176 96.1005 60.176C96.3565 60.176 96.4845 60.112 96.3565 59.984C96.1645 59.792 96.8685 59.088 97.2525 59.088C97.4445 59.088 97.5725 58.896 97.5725 58.704C97.5725 58.384 98.5325 57.552 98.7885 57.744C98.7885 57.808 99.2365 57.36 99.7485 56.784C100.26 56.208 100.965 55.632 101.349 55.568C101.669 55.504 102.053 55.248 102.117 54.992C102.181 54.8 102.373 54.672 102.501 54.736C102.693 54.8 102.885 54.672 102.949 54.48C103.013 54.224 103.269 54.096 103.525 54.16C103.717 54.224 104.037 54.16 104.101 54.032C104.229 53.84 104.165 53.776 103.909 53.904C103.717 54.032 103.845 53.84 104.229 53.52C104.613 53.264 105.509 52.688 106.277 52.304C107.045 51.92 107.429 51.6 107.237 51.472C106.981 51.408 107.109 51.344 107.429 51.344C107.749 51.28 108.133 51.152 108.325 50.96ZM128.669 57.936C128.669 57.488 129.501 57.36 129.693 57.744C129.885 58.384 122.525 65.488 117.149 69.84C116.125 70.672 115.101 71.504 114.973 71.632C113.949 72.592 110.493 75.024 110.301 74.96C110.173 74.896 110.045 74.896 109.917 75.088C109.661 75.536 108.253 75.856 107.485 75.6C106.205 75.28 105.693 74.64 105.053 72.656C104.093 69.776 104.093 66.512 104.925 64.016C105.693 61.84 106.973 59.408 108.445 57.296C109.469 55.888 112.285 52.816 113.245 52.048C113.949 51.472 115.229 51.024 114.973 51.472C114.845 51.6 114.909 51.792 114.973 51.856C115.101 51.856 115.485 52.368 115.869 52.88C116.445 53.648 116.509 53.904 116.189 54.8C116.061 55.376 115.037 56.976 114.013 58.32C112.989 59.664 111.581 61.712 110.813 62.864C109.533 65.04 107.293 69.84 107.293 70.544C107.293 70.928 107.997 70.928 108.637 70.544C108.893 70.352 108.957 70.416 108.829 70.608C108.573 71.056 108.829 70.992 109.277 70.544C109.469 70.352 110.237 69.968 110.941 69.648C111.645 69.328 112.797 68.56 113.501 68.048C114.205 67.472 114.909 67.024 115.037 67.024C115.229 67.024 115.357 66.896 115.357 66.704C115.357 66.576 115.421 66.448 115.485 66.576C115.613 66.704 116.445 66.128 117.341 65.36C118.301 64.528 119.069 64.016 119.261 64.144C119.453 64.272 119.517 64.208 119.389 64.016C119.261 63.888 119.325 63.696 119.389 63.696C119.517 63.696 119.965 63.44 120.349 63.056C120.733 62.736 121.245 62.48 121.501 62.48C121.757 62.544 121.949 62.416 121.949 62.224C121.885 62.096 122.397 61.648 123.037 61.328C123.741 61.008 124.381 60.56 124.573 60.304C125.085 59.664 126.365 59.024 127.005 59.024C127.389 59.024 127.645 58.768 127.773 58.448C127.837 58.064 128.029 57.936 128.285 58C128.477 58.064 128.669 58.064 128.669 57.936ZM116.765 49.232C116.125 47.12 116.125 46.352 116.765 45.648C117.661 44.688 119.453 43.664 119.901 43.856C120.093 43.92 120.349 43.856 120.541 43.728C121.309 42.96 124.509 43.792 124.509 44.816C124.509 45.2 124.253 45.392 123.613 45.52C123.101 45.584 122.141 46.16 121.437 46.8C119.325 48.784 117.661 50.128 117.341 50.128C117.149 50.128 116.893 49.744 116.765 49.232ZM155.032 67.664C154.968 67.792 154.456 68.304 153.816 68.752C147.8 72.976 147.544 73.104 145.752 73.36C144.472 73.552 144.088 73.424 143.064 72.592C142.04 71.76 141.72 71.248 141.4 69.776C140.504 66 140.312 63.504 140.696 61.072C140.824 60.048 140.888 59.088 140.824 59.024C140.568 58.704 136.856 61.584 134.872 63.568C133.912 64.528 131.8 67.024 130.136 69.136C128.408 71.184 126.936 72.912 126.808 72.912C126.68 72.912 126.424 73.04 126.296 73.232C126.04 73.616 125.784 73.552 125.144 72.72C124.824 72.272 124.568 71.504 124.568 70.992C124.568 70.48 124.44 69.968 124.312 69.904C124.184 69.776 123.992 68.624 123.864 67.408C123.736 65.616 123.8 64.72 124.248 63.12C124.696 61.456 127.128 55.632 127.576 55.056C127.64 54.928 128.088 54.16 128.536 53.328C129.56 51.408 133.08 46.608 133.464 46.608C133.592 46.608 134.104 47.12 134.616 47.76C135.768 49.424 135.576 50.32 132.632 55.696C131.288 58.192 129.944 60.88 129.56 61.648C128.984 62.992 128.984 63.12 129.432 63.12C129.688 63.12 129.816 62.992 129.752 62.864C129.432 62.48 131.416 60.752 131.8 61.008C131.992 61.2 132.056 61.136 131.928 60.944C131.8 60.56 133.144 58.896 133.656 58.896C133.784 58.896 134.104 58.512 134.424 58.128C134.68 57.68 135.064 57.36 135.256 57.36C135.448 57.36 135.64 57.168 135.64 56.912C135.64 56.72 135.832 56.592 136.024 56.656C136.152 56.784 136.6 56.4 136.984 55.888C137.304 55.44 137.688 55.12 137.816 55.184C137.944 55.312 138.136 55.12 138.264 54.8C138.392 54.416 138.648 54.224 138.968 54.352C139.288 54.48 139.48 54.416 139.416 54.288C139.16 53.776 139.672 53.456 140.888 53.264C141.848 53.136 142.04 53.264 143 54.672C143.96 56.208 144.024 56.4 143.832 58.256C143.768 59.344 143.384 61.584 143.128 63.248C142.424 66.96 142.488 67.792 143.512 68.176C144.6 68.56 146.84 68.176 148.312 67.344C149.016 66.896 149.784 66.576 150.04 66.576C150.296 66.576 150.744 66.192 151 65.744C151.32 65.232 151.704 65.04 152.024 65.168C152.344 65.296 152.664 65.168 152.728 64.848C152.856 64.528 153.112 64.464 153.496 64.592C153.88 64.72 154.008 64.656 153.88 64.336C153.624 63.76 154.648 63.056 155.224 63.376C155.544 63.568 155.672 63.504 155.544 63.184C155.416 62.864 155.48 62.8 155.736 62.992C155.992 63.12 156.184 63.056 156.184 62.864C156.184 62.352 157.592 61.264 158.424 61.136C158.808 61.008 159.256 60.816 159.448 60.688C159.64 60.496 159.768 60.496 159.768 60.624C159.768 60.752 160.024 60.56 160.216 60.24C160.472 59.856 160.92 59.664 161.176 59.792C161.496 59.856 161.816 59.728 162.008 59.472C162.2 59.152 162.648 59.024 163.032 59.088C163.416 59.216 163.672 59.152 163.544 58.96C163.48 58.768 163.736 58.64 164.184 58.64C164.568 58.64 165.016 58.832 165.08 59.024C165.208 59.408 162.072 62.672 161.56 62.672C161.368 62.736 161.176 62.864 161.112 63.056C160.92 63.632 156.056 67.344 155.48 67.344C155.288 67.344 155.096 67.472 155.032 67.664ZM170.835 51.728C170.835 51.536 172.499 51.088 172.819 51.152C172.947 51.216 173.011 51.152 172.947 51.024C172.691 50.64 175.187 49.872 176.659 49.808C178.259 49.744 179.411 50 180.947 50.832C182.675 51.792 183.315 52.688 183.315 54.16C183.315 55.312 183.379 55.44 184.083 55.568C185.491 55.824 186.579 57.104 186.771 58.768C187.155 61.264 187.155 62.096 186.707 63.824C186.451 64.784 186.195 65.936 186.067 66.384C185.811 67.344 185.875 67.344 187.219 66.448C187.603 66.192 188.051 66 188.115 66.128C188.243 66.192 188.307 66.192 188.307 66C188.307 65.872 188.627 65.616 189.011 65.552C189.395 65.424 189.651 65.232 189.587 65.104C189.459 64.976 189.715 64.784 190.099 64.72C190.483 64.592 190.803 64.4 190.803 64.272C190.803 64.08 191.059 64.016 191.379 64.016C191.635 64.016 191.891 63.824 191.891 63.696C191.891 63.504 192.083 63.44 192.339 63.504C192.531 63.632 192.723 63.568 192.723 63.376C192.723 63.248 192.851 63.184 193.043 63.312C193.171 63.376 193.299 63.312 193.299 63.184C193.299 62.928 194.387 62.416 194.771 62.544C194.835 62.544 194.963 62.48 194.963 62.288C194.963 62.16 195.091 62.096 195.219 62.16C195.347 62.224 195.539 62.16 195.539 62.032C195.603 61.84 195.987 61.712 196.371 61.648C196.819 61.648 197.139 61.52 197.075 61.328C197.011 61.072 200.531 59.28 200.851 59.408C200.915 59.472 201.043 59.408 201.107 59.28C201.171 59.152 201.491 58.96 201.811 58.896C202.131 58.832 202.515 58.704 202.643 58.64C202.963 58.32 203.923 58.384 203.795 58.768C203.731 58.896 202.835 59.536 201.747 60.048C200.659 60.624 199.315 61.456 198.611 61.84C197.971 62.288 197.395 62.608 197.267 62.608C197.139 62.608 196.755 62.8 196.499 63.056C196.179 63.248 195.219 63.952 194.323 64.464C189.907 67.344 185.043 70.672 184.659 71.056C184.467 71.248 184.083 71.952 183.891 72.528C183.699 73.104 182.675 75.344 181.587 77.52C179.923 80.912 179.027 82.576 176.531 86.608C175.571 88.208 173.267 91.152 172.947 91.152C172.819 91.152 172.755 91.28 172.819 91.344C173.203 91.728 166.611 98.384 165.907 98.384C165.651 98.384 165.523 98.448 165.651 98.576C165.843 98.768 165.011 99.344 162.515 100.688C161.299 101.328 160.531 101.52 158.867 101.648C157.715 101.648 156.627 101.648 156.371 101.52C155.603 101.2 154.323 99.984 153.491 98.896C152.851 98 152.787 97.744 152.915 96.592C153.043 95.888 153.299 95.12 153.555 94.928C153.747 94.672 153.875 94.48 153.747 94.48C153.491 94.48 154.771 92.496 155.219 92.24C155.411 92.112 155.539 91.792 155.539 91.536C155.539 91.344 155.987 90.704 156.563 90.128C157.075 89.616 157.651 88.912 157.779 88.656C157.971 88.336 158.227 88.208 158.355 88.272C158.483 88.4 158.611 88.272 158.547 88.08C158.483 87.888 158.611 87.76 158.803 87.76C158.995 87.824 159.123 87.76 159.059 87.632C159.059 87.504 159.379 87.056 159.827 86.608C160.275 86.16 160.531 85.904 160.403 86.096C160.339 86.288 160.339 86.48 160.531 86.48C160.723 86.48 160.851 86.288 160.851 86.032C160.851 85.776 161.235 85.328 161.811 85.072C162.323 84.752 162.835 84.24 162.899 83.984C163.027 83.664 163.475 83.152 163.987 82.768C165.075 82 165.779 81.488 166.419 80.848C166.675 80.592 167.123 80.336 167.315 80.336C167.507 80.336 167.763 80.08 167.827 79.824C167.955 79.44 168.147 79.312 168.403 79.44C168.723 79.568 168.851 79.44 168.851 78.992C168.851 78.608 169.171 78.288 169.747 77.968C170.259 77.712 171.027 77.136 171.475 76.688C171.859 76.304 172.371 75.984 172.499 76.048C172.627 76.176 172.755 76.048 172.755 75.856C172.755 75.536 174.291 74.448 174.867 74.384C174.995 74.384 175.315 74.192 175.571 73.936C175.891 73.616 176.275 73.488 176.595 73.616C176.979 73.744 176.979 73.68 176.659 73.424C176.275 73.168 176.403 73.04 176.979 73.104C177.107 73.104 177.171 72.976 177.171 72.72C177.171 72.528 177.427 72.272 177.811 72.144C178.323 72.016 179.091 70.48 180.499 67.152C180.627 66.896 180.883 66.192 181.139 65.68C181.395 65.104 181.651 64.272 181.779 63.696C181.907 63.184 182.035 62.608 182.163 62.48C182.227 62.288 182.355 62.032 182.355 61.84C182.419 61.712 182.483 61.264 182.611 60.944C182.803 60.24 182.483 60.24 181.587 60.944C180.499 61.84 180.435 61.904 179.411 62.608C178.899 62.992 178.195 63.568 177.875 63.824C177.555 64.144 176.595 64.976 175.827 65.68C174.995 66.32 173.907 67.28 173.331 67.792C172.819 68.304 172.243 68.688 172.179 68.688C172.115 68.688 171.475 69.2 170.771 69.84C170.131 70.48 169.171 71.184 168.723 71.376C168.275 71.632 167.763 72.016 167.507 72.208C166.995 72.784 165.331 73.616 163.987 73.936C161.939 74.512 160.723 73.68 158.355 69.904C157.587 68.624 157.459 68.304 157.651 67.28C157.843 66 159.443 62.352 159.763 62.352C159.891 62.352 160.147 61.904 160.403 61.392C161.043 60.112 162.387 58.64 162.707 58.832C162.899 58.96 162.963 58.832 162.835 58.576C162.771 58.256 163.027 57.808 163.795 57.232C164.371 56.72 165.523 55.632 166.355 54.864C167.187 54.096 168.019 53.456 168.211 53.456C168.403 53.456 168.595 53.328 168.595 53.2C168.595 53.072 169.107 52.752 169.683 52.432C170.323 52.176 170.835 51.856 170.835 51.728ZM174.611 79.312C175.763 77.52 175.699 76.944 174.483 77.968C174.035 78.352 173.523 78.672 173.395 78.672C173.203 78.672 173.011 78.8 173.011 78.928C172.947 79.056 171.411 80.4 169.555 81.936C167.763 83.472 165.843 85.136 165.331 85.648C164.883 86.16 163.923 87.12 163.283 87.76C162.643 88.4 161.939 89.104 161.747 89.36C161.555 89.552 161.299 89.808 161.171 89.808C160.723 90 157.779 94.288 156.883 95.952C155.795 98.192 155.795 98.448 157.203 98C157.779 97.744 158.611 97.424 158.931 97.296C159.315 97.104 159.827 96.72 160.211 96.4C160.531 96.08 160.979 95.888 161.235 96.016C161.491 96.08 161.555 96.016 161.491 95.76C161.363 95.504 161.491 95.376 161.683 95.376C161.811 95.376 163.347 93.968 165.075 92.24C166.739 90.512 168.211 89.104 168.339 89.168C168.467 89.232 168.531 89.104 168.467 88.912C168.339 88.72 168.659 88.144 169.107 87.696C170.259 86.288 170.835 85.52 171.091 84.944C171.603 83.792 173.523 81.36 173.907 81.424C174.163 81.488 174.227 81.424 173.971 81.168C173.715 80.912 173.843 80.464 174.611 79.312ZM173.459 57.296C173.331 57.296 173.075 57.488 172.883 57.68C172.691 57.872 172.051 58.384 171.475 58.832C168.531 61.264 164.947 65.424 163.923 67.664C163.859 67.792 164.051 67.792 164.371 67.6C164.691 67.472 165.011 67.408 165.139 67.536C165.267 67.664 165.267 67.536 165.139 67.344C164.947 67.024 165.011 66.96 165.331 67.088C165.651 67.216 165.843 67.088 165.971 66.768C166.035 66.512 166.611 66.064 167.187 65.68C167.763 65.36 168.403 64.912 168.595 64.656C168.787 64.464 169.043 64.336 169.235 64.464C169.363 64.528 169.427 64.464 169.299 64.336C169.235 64.144 169.235 64.016 169.363 64.016C169.619 64.016 173.587 60.752 174.035 60.176C174.227 59.92 174.483 59.856 174.675 59.984C174.931 60.112 174.995 60.048 174.867 59.92C174.675 59.536 175.443 58.896 175.827 59.152C175.955 59.216 176.083 59.088 176.083 58.896C176.083 58.64 176.211 58.448 176.275 58.448C176.403 58.448 176.851 58.128 177.299 57.744C177.747 57.36 178.259 57.168 178.387 57.232C178.579 57.36 178.643 57.296 178.515 57.168C178.259 56.912 179.987 55.632 180.435 55.76C180.691 55.888 180.755 55.824 180.691 55.696C180.627 55.568 180.691 55.376 180.947 55.312C181.587 55.056 181.459 53.968 180.819 53.968C179.731 53.968 176.723 55.248 174.867 56.528C174.163 56.976 173.587 57.296 173.459 57.296ZM215.994 79.568C215.226 79.12 213.69 76.24 213.178 74.32C212.474 71.184 212.666 68.176 213.882 64.144C214.202 63.184 214.458 62.16 214.522 61.968C215.226 58.768 222.138 45.968 226.042 40.72L226.938 39.376L224.762 39.568C223.546 39.696 221.498 39.888 220.218 40.016C218.938 40.144 217.082 40.336 216.186 40.4C215.29 40.528 213.626 40.656 212.538 40.72L210.49 40.912V40.208C210.49 39.632 210.874 38.48 211.194 37.84C211.258 37.84 211.514 37.712 211.77 37.648C212.09 37.584 212.858 37.328 213.562 37.136C214.202 36.88 215.482 36.624 216.378 36.624C217.21 36.56 217.85 36.496 217.786 36.368C217.722 36.24 217.978 36.112 218.298 36.112C218.682 36.112 219.194 36.048 219.514 35.984C220.026 35.92 223.418 35.536 225.018 35.472C225.402 35.408 226.618 35.408 227.706 35.344L229.626 35.28L231.866 32.336C233.146 30.672 234.49 29.008 234.874 28.624L235.514 27.856L236.602 29.136C237.882 30.608 237.882 31.12 236.538 33.744C236.09 34.576 235.898 35.28 236.026 35.28C236.154 35.28 236.282 35.216 236.282 35.024C236.282 34.832 236.538 34.832 237.05 35.024C237.882 35.344 238.074 35.408 237.882 35.088C237.818 34.96 238.714 34.896 239.866 34.96C241.018 35.024 243.258 35.024 244.858 35.024C246.394 35.088 247.738 35.152 247.802 35.28C247.866 35.408 248.698 35.472 249.658 35.408C250.618 35.408 251.642 35.536 251.962 35.664C252.218 35.792 252.41 35.792 252.346 35.664C252.218 35.536 252.602 35.472 253.114 35.536C253.626 35.6 254.074 35.728 254.074 35.856C254.074 35.92 254.458 35.984 254.97 35.984C255.482 35.984 256.122 36.112 256.378 36.24C257.466 36.752 256.25 37.072 252.666 37.136C247.93 37.2 244.41 37.456 240.442 37.968C239.93 38.032 238.714 38.16 237.754 38.224C233.914 38.608 233.466 38.736 233.018 39.504C232.762 39.952 232.25 40.784 231.866 41.488C231.482 42.128 229.754 44.944 228.09 47.632C221.562 58.32 217.85 66.576 216.634 73.104C216.378 74.128 216.442 74.128 217.146 74C217.53 73.872 217.978 73.808 218.17 73.808C218.362 73.808 218.49 73.68 218.426 73.616C218.362 73.488 218.682 73.168 219.194 72.912C219.706 72.592 220.922 71.76 221.946 70.992C224.442 69.072 224.954 68.752 225.21 68.816C225.402 68.88 225.466 68.752 225.402 68.624C225.338 68.368 227.642 66.384 228.09 66.384C228.282 66.32 228.538 66.32 228.666 66.384C228.858 66.384 228.858 66.32 228.73 66.256C228.666 66.128 228.922 65.744 229.306 65.424C230.522 64.464 234.682 61.648 234.938 61.648C235.066 61.648 235.194 61.456 235.194 61.264C235.194 61.008 235.322 60.816 235.514 60.816C235.642 60.816 235.706 61.008 235.642 61.2C235.514 61.392 235.642 61.328 235.834 61.072C236.026 60.816 236.282 60.624 236.41 60.752C236.474 60.88 236.602 60.752 236.602 60.56C236.602 60.112 237.37 59.408 237.626 59.536C237.946 59.728 239.098 58.704 239.098 58.32C239.098 57.936 239.802 58 240.122 58.448C240.378 58.704 240.122 59.216 238.906 60.752C238.01 61.776 237.242 62.736 237.114 62.8C236.986 62.864 236.474 63.504 235.898 64.144C233.402 67.216 226.234 74.192 222.906 76.816C221.818 77.712 220.858 78.544 220.794 78.672C220.794 78.8 220.538 78.864 220.41 78.864C220.218 78.864 219.898 79.056 219.706 79.184C219.066 79.888 216.954 80.08 215.994 79.568ZM234.236 64.4C234.364 63.952 234.556 63.44 234.748 63.248C234.876 63.056 234.94 62.928 234.812 62.928C234.748 62.928 235.132 62.032 235.644 60.944C236.156 59.856 236.604 58.96 236.604 58.896C236.604 58.64 240.06 52.688 241.084 51.088C242.364 49.232 244.732 46.032 246.588 43.728C251.516 37.52 260.156 28.496 261.116 28.496C261.372 28.496 261.5 28.368 261.436 28.24C261.372 28.112 261.436 27.92 261.564 27.792C261.756 27.664 262.14 27.92 262.46 28.368C262.78 28.752 263.164 29.264 263.356 29.392C263.996 29.968 263.1 31.696 260.732 34.64C259.452 36.176 258.236 37.648 258.044 37.776C255.676 40.144 247.1 51.664 243.836 56.784C242.62 58.704 239.356 64.656 239.356 64.976C239.356 64.976 239.548 65.04 239.74 65.04C239.996 65.04 240.124 64.912 240.06 64.784C239.996 64.72 240.956 63.76 242.172 62.8C243.836 61.456 244.54 61.072 244.732 61.328C244.86 61.52 244.924 61.52 244.796 61.2C244.732 60.816 245.052 60.496 246.012 59.856C246.78 59.344 247.484 59.024 247.676 59.152C247.804 59.216 248.124 59.024 248.38 58.704C248.892 57.872 251.004 56.464 251.324 56.656C251.452 56.784 251.58 56.656 251.58 56.528C251.58 56.336 251.708 56.272 251.836 56.4C252.028 56.464 252.156 56.464 252.156 56.272C252.156 55.952 253.372 55.376 254.14 55.376C254.524 55.376 255.356 55.952 256.06 56.592L257.34 57.744L257.212 59.728C257.212 60.816 256.828 62.992 256.444 64.592C256.06 66.192 255.74 67.856 255.74 68.368C255.74 69.136 255.804 69.264 256.636 69.328C257.212 69.392 258.108 69.136 259.324 68.496C260.284 68.048 261.18 67.664 261.308 67.792C261.436 67.856 261.564 67.792 261.564 67.664C261.564 67.408 263.676 66.256 264.252 66.256C264.444 66.256 264.572 66.128 264.508 66C264.38 65.744 265.852 64.976 266.044 65.168C266.108 65.232 266.428 64.976 266.812 64.656C267.196 64.272 267.644 64.016 267.836 64.016C268.028 64.016 268.476 63.76 268.86 63.44C269.244 63.184 269.82 62.992 270.268 62.992C270.908 63.12 270.972 63.056 270.652 62.672C270.46 62.416 270.46 62.288 270.652 62.416C270.78 62.544 271.1 62.416 271.292 62.224C271.42 62.032 271.804 61.904 272.124 61.904C272.444 61.968 272.636 61.904 272.508 61.776C272.444 61.648 272.7 61.52 273.084 61.392C273.468 61.328 273.788 61.072 273.788 60.944C273.788 60.688 273.916 60.752 274.172 60.944C274.556 61.264 274.62 61.2 274.62 60.88C274.62 60.56 274.748 60.496 275.004 60.56C275.26 60.688 275.452 60.624 275.452 60.496C275.452 60.368 275.708 60.112 276.028 59.92C276.348 59.664 276.54 59.664 276.412 59.792C276.284 59.984 276.412 60.048 276.668 59.92C276.924 59.856 277.052 59.728 276.988 59.6C276.86 59.408 277.436 58.896 277.948 58.768C278.14 58.768 278.652 58.448 279.036 58.192C279.996 57.552 280.892 57.232 281.084 57.616C281.34 58 280.828 58.768 279.484 59.792C278.844 60.24 277.948 61.072 277.372 61.52C276.86 61.968 275.708 62.864 274.876 63.504C274.044 64.144 273.276 64.784 273.212 64.848C273.084 65.04 267.004 69.2 266.172 69.776C265.852 69.968 264.572 70.736 263.356 71.44C260.796 73.04 258.556 74 257.468 74C257.02 74 256.316 73.744 255.804 73.488C254.716 72.976 253.756 71.12 253.052 68.176C252.604 66 252.668 64.464 253.436 61.712C253.692 60.816 253.82 60.048 253.692 59.92C253.564 59.792 249.34 62.096 248.7 62.736C248.508 62.928 247.612 63.568 246.716 64.272C245.82 64.976 243.196 67.344 240.956 69.52C237.308 73.104 236.796 73.488 236.156 73.36C235.772 73.232 235.324 72.848 235.132 72.4C235.004 71.952 234.684 71.312 234.492 70.928C233.596 69.072 233.404 67.152 233.98 65.424C233.98 65.296 234.108 64.912 234.236 64.4ZM281.461 60.688C281.461 60.496 281.589 60.368 281.781 60.368C281.909 60.368 281.973 60.496 281.909 60.688C281.781 60.816 281.653 60.944 281.589 60.944C281.525 60.944 281.461 60.816 281.461 60.688ZM291.317 50.64C291.189 50.384 291.317 50.384 291.957 50.704C293.173 51.344 294.837 54.096 295.029 55.632C295.221 58.128 293.173 61.456 290.037 63.632C286.901 65.808 283.125 66.64 281.013 65.552C279.989 65.04 279.924 65.04 279.605 65.488C279.157 66.128 278.901 67.472 279.029 68.624C279.093 69.456 279.221 69.648 280.181 69.904C280.757 70.032 281.141 70.288 281.013 70.352C280.949 70.48 281.205 70.48 281.717 70.288C282.165 70.16 282.613 70.16 282.677 70.224C283.061 70.608 285.749 69.648 289.077 68.048C289.653 67.792 290.229 67.6 290.421 67.728C290.613 67.792 290.613 67.728 290.485 67.6C290.421 67.344 290.613 67.152 290.997 66.96C291.381 66.832 291.765 66.576 291.829 66.448C291.957 66.32 292.405 66.128 292.853 66C293.301 65.872 293.685 65.68 293.685 65.552C293.685 65.36 293.877 65.296 294.069 65.424C294.325 65.488 294.517 65.424 294.517 65.296C294.517 65.168 294.965 64.784 295.541 64.464C296.117 64.08 296.757 63.632 296.949 63.44C297.141 63.248 297.461 63.184 297.589 63.248C297.717 63.312 297.845 63.248 297.845 63.12C297.845 62.928 298.037 62.8 298.229 62.8C298.485 62.8 298.677 62.672 298.677 62.544C298.677 62.416 299.189 62.096 299.829 61.84C300.469 61.584 301.365 61.136 301.813 60.752C302.645 60.112 304.053 59.536 304.117 59.792C304.117 59.856 304.437 59.664 304.757 59.408C305.077 59.088 305.461 58.96 305.653 59.088C305.845 59.216 305.909 59.152 305.781 58.96C305.525 58.576 306.613 58 307.125 58.192C307.381 58.256 307.509 58.192 307.509 58C307.445 57.808 307.573 57.68 307.765 57.744C307.957 57.808 308.085 57.68 308.085 57.488C308.085 57.296 308.213 57.232 308.277 57.36C308.405 57.424 308.789 57.36 309.109 57.104C309.493 56.848 309.941 56.784 310.132 56.848C310.261 56.976 310.325 56.912 310.261 56.784C310.132 56.592 310.261 56.4 310.453 56.336C310.708 56.208 310.901 56.336 310.901 56.656C310.837 56.912 310.132 57.68 309.237 58.384C308.341 59.024 307.573 59.728 307.573 59.856C307.573 59.92 307.445 60.048 307.317 60.048C307.125 60.048 306.037 60.752 304.885 61.648C303.029 63.056 297.269 66.96 290.613 71.44C289.653 72.08 288.501 72.848 288.053 73.104C287.669 73.424 287.22 73.616 287.093 73.616C286.965 73.616 286.133 74 285.365 74.448C283.701 75.28 281.589 75.664 280.181 75.28C279.157 75.088 277.684 74.064 277.3 73.36C276.66 72.144 276.084 68.624 276.084 65.552C276.084 62.672 276.148 62.224 276.852 60.752C277.748 58.768 279.541 56.4 279.924 56.592C280.053 56.72 280.053 56.656 279.989 56.464C279.861 56.336 280.693 55.376 281.845 54.352C284.021 52.368 287.285 50.448 288.181 50.704C288.437 50.768 288.629 50.704 288.565 50.576C288.309 50.256 290.741 50.32 291.189 50.704C291.509 50.96 291.509 50.96 291.317 50.64ZM292.597 56.016C292.597 55.504 291.957 55.504 289.973 56.016C287.925 56.528 284.469 58.96 282.869 60.944C282.485 61.456 282.549 61.456 283.957 61.328C284.789 61.264 285.877 61.072 286.389 60.88C286.901 60.752 287.285 60.688 287.285 60.752C287.285 60.816 287.733 60.56 288.245 60.176C288.757 59.792 289.269 59.472 289.397 59.472C289.845 59.472 292.597 56.528 292.597 56.016ZM352.095 67.664C352.031 67.792 351.519 68.304 350.879 68.752C344.863 72.976 344.607 73.104 342.815 73.36C341.535 73.552 341.151 73.424 340.127 72.592C339.103 71.76 338.783 71.248 338.463 69.776C337.567 66 337.375 63.504 337.759 61.072C337.887 60.048 337.951 59.088 337.887 59.024C337.631 58.704 333.919 61.584 331.935 63.568C330.975 64.528 328.863 67.024 327.199 69.136C325.471 71.184 323.998 72.912 323.87 72.912C323.742 72.912 323.486 73.04 323.358 73.232C323.102 73.616 322.846 73.552 322.206 72.72C321.886 72.272 321.63 71.504 321.63 70.992C321.63 70.48 321.502 69.968 321.374 69.904C321.246 69.776 321.054 68.624 320.926 67.408C320.798 65.616 320.862 64.72 321.31 63.12C321.758 61.456 324.191 55.632 324.639 55.056C324.703 54.928 325.151 54.16 325.599 53.328C326.623 51.408 330.143 46.608 330.527 46.608C330.655 46.608 331.167 47.12 331.679 47.76C332.831 49.424 332.639 50.32 329.695 55.696C328.351 58.192 327.007 60.88 326.623 61.648C326.047 62.992 326.047 63.12 326.495 63.12C326.751 63.12 326.879 62.992 326.815 62.864C326.495 62.48 328.479 60.752 328.863 61.008C329.055 61.2 329.119 61.136 328.991 60.944C328.863 60.56 330.207 58.896 330.719 58.896C330.847 58.896 331.167 58.512 331.487 58.128C331.743 57.68 332.127 57.36 332.319 57.36C332.51 57.36 332.703 57.168 332.703 56.912C332.703 56.72 332.895 56.592 333.087 56.656C333.215 56.784 333.663 56.4 334.047 55.888C334.367 55.44 334.751 55.12 334.879 55.184C335.007 55.312 335.199 55.12 335.327 54.8C335.455 54.416 335.711 54.224 336.031 54.352C336.351 54.48 336.543 54.416 336.479 54.288C336.223 53.776 336.735 53.456 337.951 53.264C338.911 53.136 339.103 53.264 340.062 54.672C341.023 56.208 341.087 56.4 340.895 58.256C340.831 59.344 340.447 61.584 340.191 63.248C339.487 66.96 339.551 67.792 340.575 68.176C341.663 68.56 343.903 68.176 345.375 67.344C346.079 66.896 346.847 66.576 347.103 66.576C347.359 66.576 347.807 66.192 348.063 65.744C348.383 65.232 348.767 65.04 349.087 65.168C349.407 65.296 349.727 65.168 349.791 64.848C349.919 64.528 350.175 64.464 350.559 64.592C350.943 64.72 351.071 64.656 350.943 64.336C350.687 63.76 351.711 63.056 352.287 63.376C352.607 63.568 352.735 63.504 352.607 63.184C352.479 62.864 352.543 62.8 352.799 62.992C353.055 63.12 353.247 63.056 353.247 62.864C353.247 62.352 354.655 61.264 355.487 61.136C355.871 61.008 356.319 60.816 356.511 60.688C356.703 60.496 356.831 60.496 356.831 60.624C356.831 60.752 357.087 60.56 357.279 60.24C357.535 59.856 357.983 59.664 358.239 59.792C358.559 59.856 358.879 59.728 359.071 59.472C359.263 59.152 359.711 59.024 360.095 59.088C360.479 59.216 360.735 59.152 360.607 58.96C360.543 58.768 360.799 58.64 361.247 58.64C361.631 58.64 362.079 58.832 362.143 59.024C362.271 59.408 359.135 62.672 358.623 62.672C358.431 62.736 358.239 62.864 358.175 63.056C357.983 63.632 353.119 67.344 352.543 67.344C352.351 67.344 352.159 67.472 352.095 67.664ZM356.569 67.6C356.569 66.96 356.441 66.448 356.313 66.32C355.673 65.936 355.993 63.632 356.826 61.84C357.785 59.856 362.074 55.12 362.65 55.504C362.842 55.568 362.906 55.568 362.906 55.376C362.714 54.672 367.258 52.048 368.922 51.856C369.05 51.856 369.37 51.792 369.626 51.664C370.586 51.344 372.57 51.216 373.658 51.536C375.066 51.984 377.626 54.352 377.882 55.504C377.946 55.952 378.522 56.784 379.226 57.424C380.25 58.448 380.442 58.768 380.442 59.792C380.442 60.496 379.994 62.032 379.29 63.76C378.714 65.296 378.266 66.576 378.33 66.64C378.394 66.768 383.834 64.272 386.074 63.12C386.778 62.736 387.098 62.672 386.906 62.864C386.778 63.12 386.906 63.12 387.226 62.8C387.802 62.416 389.658 61.456 389.978 61.456C390.106 61.456 390.106 61.648 389.978 61.84C389.786 62.16 390.426 61.712 391.194 61.008C391.386 60.816 391.77 60.624 392.026 60.624C392.346 60.624 392.602 60.56 392.729 60.432C392.922 60.24 393.562 60.048 394.201 59.984C394.394 59.984 394.586 59.856 394.714 59.6C394.778 59.408 395.482 59.216 396.25 59.088C397.018 58.96 397.53 58.768 397.466 58.64C397.338 58.384 398.362 58.576 398.682 58.832C399.002 59.088 398.17 59.92 396.634 60.944C395.674 61.584 394.842 62.224 394.842 62.352C394.842 62.48 394.65 62.544 394.458 62.544C394.266 62.544 394.01 62.672 393.946 62.8C393.882 63.056 390.554 65.616 390.298 65.616C390.234 65.616 389.146 66.384 387.866 67.28C386.586 68.176 385.498 68.88 385.37 68.816C385.306 68.752 385.05 68.88 384.858 69.072C384.666 69.328 384.218 69.648 383.77 69.904C378.202 72.848 377.882 72.912 376.794 72.016C375.77 71.248 374.426 66.768 374.682 65.04C374.746 64.592 374.682 64.272 374.554 64.272C374.426 64.272 373.338 64.912 372.186 65.68C371.034 66.512 369.754 67.344 369.37 67.6C368.986 67.856 368.474 68.24 368.345 68.368C366.362 70.032 361.562 72.272 359.834 72.272C358.809 72.272 357.465 71.056 357.209 69.904C357.145 69.392 356.953 68.88 356.826 68.816C356.697 68.688 356.569 68.176 356.569 67.6ZM366.874 60.112C365.146 61.392 360.73 65.808 360.73 66.192C360.73 66.512 360.73 66.512 362.01 66.064C362.586 65.872 363.866 65.296 364.89 64.848C365.85 64.4 366.81 64.08 366.938 64.144C367.066 64.272 367.13 64.208 367.002 64.08C366.81 63.696 368.41 62.736 368.794 62.992C368.986 63.12 369.05 63.12 368.986 62.928C368.858 62.8 368.986 62.48 369.178 62.288C369.434 62.096 369.626 62.032 369.626 62.16C369.626 62.224 369.882 62.096 370.202 61.776C370.522 61.456 370.906 61.2 371.034 61.2C371.162 61.2 371.354 61.2 371.418 61.2C371.482 61.136 371.93 60.816 372.378 60.304C372.89 59.856 373.466 59.536 373.658 59.664C373.914 59.728 373.978 59.664 373.914 59.536C373.85 59.408 374.106 59.088 374.49 58.768C375.45 58.064 376.09 56.848 375.578 56.656C374.49 56.208 369.37 58.256 366.874 60.112ZM395.994 79.568C395.226 79.12 393.69 76.24 393.178 74.32C392.474 71.184 392.666 68.176 393.882 64.144C394.202 63.184 394.458 62.16 394.522 61.968C395.226 58.768 402.138 45.968 406.042 40.72L406.938 39.376L404.762 39.568C403.546 39.696 401.498 39.888 400.218 40.016C398.938 40.144 397.082 40.336 396.186 40.4C395.29 40.528 393.626 40.656 392.538 40.72L390.49 40.912V40.208C390.49 39.632 390.874 38.48 391.194 37.84C391.258 37.84 391.514 37.712 391.77 37.648C392.09 37.584 392.858 37.328 393.562 37.136C394.202 36.88 395.482 36.624 396.378 36.624C397.21 36.56 397.85 36.496 397.786 36.368C397.722 36.24 397.978 36.112 398.298 36.112C398.682 36.112 399.194 36.048 399.514 35.984C400.026 35.92 403.418 35.536 405.018 35.472C405.402 35.408 406.618 35.408 407.706 35.344L409.626 35.28L411.866 32.336C413.146 30.672 414.49 29.008 414.874 28.624L415.514 27.856L416.602 29.136C417.882 30.608 417.882 31.12 416.538 33.744C416.09 34.576 415.898 35.28 416.026 35.28C416.154 35.28 416.282 35.216 416.282 35.024C416.282 34.832 416.538 34.832 417.05 35.024C417.882 35.344 418.074 35.408 417.882 35.088C417.818 34.96 418.714 34.896 419.866 34.96C421.018 35.024 423.258 35.024 424.858 35.024C426.394 35.088 427.738 35.152 427.802 35.28C427.866 35.408 428.698 35.472 429.658 35.408C430.618 35.408 431.642 35.536 431.962 35.664C432.218 35.792 432.41 35.792 432.346 35.664C432.218 35.536 432.602 35.472 433.114 35.536C433.626 35.6 434.074 35.728 434.074 35.856C434.074 35.92 434.458 35.984 434.97 35.984C435.482 35.984 436.122 36.112 436.378 36.24C437.466 36.752 436.25 37.072 432.666 37.136C427.93 37.2 424.41 37.456 420.442 37.968C419.93 38.032 418.714 38.16 417.754 38.224C413.914 38.608 413.466 38.736 413.018 39.504C412.762 39.952 412.25 40.784 411.866 41.488C411.482 42.128 409.754 44.944 408.09 47.632C401.562 58.32 397.85 66.576 396.634 73.104C396.378 74.128 396.442 74.128 397.146 74C397.53 73.872 397.978 73.808 398.17 73.808C398.362 73.808 398.49 73.68 398.426 73.616C398.362 73.488 398.682 73.168 399.194 72.912C399.706 72.592 400.922 71.76 401.946 70.992C404.442 69.072 404.954 68.752 405.21 68.816C405.402 68.88 405.466 68.752 405.402 68.624C405.338 68.368 407.642 66.384 408.09 66.384C408.282 66.32 408.538 66.32 408.666 66.384C408.858 66.384 408.858 66.32 408.73 66.256C408.666 66.128 408.922 65.744 409.306 65.424C410.522 64.464 414.682 61.648 414.938 61.648C415.066 61.648 415.194 61.456 415.194 61.264C415.194 61.008 415.322 60.816 415.514 60.816C415.642 60.816 415.706 61.008 415.642 61.2C415.514 61.392 415.642 61.328 415.834 61.072C416.026 60.816 416.282 60.624 416.41 60.752C416.474 60.88 416.602 60.752 416.602 60.56C416.602 60.112 417.37 59.408 417.626 59.536C417.946 59.728 419.098 58.704 419.098 58.32C419.098 57.936 419.802 58 420.122 58.448C420.378 58.704 420.122 59.216 418.906 60.752C418.01 61.776 417.242 62.736 417.114 62.8C416.986 62.864 416.474 63.504 415.898 64.144C413.402 67.216 406.234 74.192 402.906 76.816C401.818 77.712 400.858 78.544 400.794 78.672C400.794 78.8 400.538 78.864 400.41 78.864C400.218 78.864 399.898 79.056 399.706 79.184C399.066 79.888 396.954 80.08 395.994 79.568ZM456.604 59.408C456.412 59.536 455.964 59.92 455.58 60.24C455.132 60.56 453.916 61.584 452.828 62.416C451.74 63.248 450.524 64.208 450.14 64.592C449.692 64.912 448.412 65.936 447.196 66.768C445.98 67.664 443.932 69.136 442.588 70.16C440.284 71.824 437.532 73.36 436.124 73.68C435.804 73.744 434.908 73.808 434.14 73.808C433.052 73.808 432.668 73.68 432.156 73.104C431.452 72.336 431.324 72.08 430.94 69.776C430.62 68.176 430.748 63.632 431.068 62.8C431.324 62.224 430.172 63.184 426.588 66.512C425.564 67.536 423.964 68.944 423.196 69.584C422.364 70.288 421.212 71.312 420.572 71.888C419.932 72.464 419.292 72.912 419.164 72.912C419.036 72.912 418.588 73.232 418.14 73.488C417.052 74.256 415.9 74.576 415.26 74.32C414.364 74 413.468 72.976 413.276 72.144C413.148 71.76 412.956 70.928 412.828 70.352C412.7 69.776 412.636 69.2 412.7 69.072C412.764 68.944 412.7 68.496 412.508 68.048C412.252 67.344 412.316 66.896 412.7 65.552C413.276 63.888 414.172 61.84 414.556 61.584C414.62 61.52 414.94 61.008 415.26 60.432C416.412 58.128 420.188 54.096 421.212 54.096C421.404 54.096 421.98 54.48 422.428 54.928C423.068 55.632 423.196 55.888 423.004 56.72C422.876 57.488 421.084 60.176 420.316 60.752C419.804 61.136 416.092 67.92 416.284 68.112C416.476 68.304 418.972 66.96 421.916 64.976C423.644 63.76 425.5 62.608 425.948 62.352C426.396 62.096 426.652 61.84 426.524 61.712C426.396 61.584 426.588 61.584 426.844 61.648C427.164 61.776 427.292 61.712 427.164 61.584C427.1 61.392 427.228 61.2 427.484 61.136C427.676 61.008 428.188 60.624 428.572 60.304C428.956 59.92 429.34 59.6 429.532 59.6C429.66 59.6 430.236 59.216 430.812 58.64C431.388 58.128 431.964 57.68 432.092 57.68C432.22 57.68 432.476 57.552 432.668 57.424C434.204 56.08 434.716 55.76 435.036 55.76C435.228 55.76 435.42 55.568 435.548 55.312C435.612 55.056 435.868 54.928 436.06 54.992C436.252 55.12 436.444 54.992 436.508 54.8C436.7 54.288 438.428 56.208 438.428 56.976C438.428 58 437.66 59.728 436.06 62.416C434.332 65.296 433.564 66.96 433.308 68.304C433.116 69.264 433.18 69.328 433.756 69.328C434.076 69.392 434.78 69.456 435.292 69.52C435.74 69.584 436.636 69.392 437.276 69.2C437.916 68.944 438.62 68.88 438.748 68.944C438.94 69.072 438.94 69.008 438.876 68.88C438.62 68.496 440.22 67.856 440.732 68.048C440.988 68.112 441.116 68.048 440.988 67.856C440.924 67.664 441.308 67.28 441.948 66.96C442.524 66.64 443.228 66.256 443.548 66C443.804 65.744 443.996 65.744 443.868 65.936C443.74 66.192 443.804 66.192 444.06 66.128C444.316 66 444.444 65.808 444.38 65.68C444.252 65.552 444.38 65.424 444.636 65.424C444.828 65.424 445.212 65.232 445.404 64.912C445.852 64.336 446.876 63.76 447.132 63.952C447.196 64.08 447.26 64.016 447.26 63.824C447.26 63.632 447.452 63.568 447.58 63.696C447.772 63.76 447.836 63.76 447.772 63.568C447.516 63.184 448.284 62.544 448.668 62.8C448.796 62.928 449.052 62.8 449.116 62.544C449.244 62.224 450.012 61.712 451.932 60.816C453.532 59.984 456.22 58.512 456.668 58.192C456.86 58 456.988 58 456.988 58.128C456.988 58.192 457.18 58.128 457.372 58C457.628 57.808 457.948 57.744 458.076 57.808C458.396 58 458.012 58.32 456.604 59.408ZM459.553 53.456C460.001 53.968 460.257 54.48 460.193 54.8C460.065 55.312 460.257 55.248 460.961 54.672C463.201 52.88 464.737 51.984 465.505 51.984C465.697 51.984 466.593 52.624 467.553 53.392L469.281 54.864H471.841C473.249 54.864 474.401 54.8 474.401 54.736C474.337 54.224 474.465 54.096 474.721 54.416C474.913 54.8 475.041 54.8 475.425 54.48C475.617 54.288 475.809 54.224 475.809 54.352C475.809 54.48 476.001 54.416 476.129 54.288C476.321 54.096 476.641 54.032 476.833 54.096C477.025 54.16 477.281 54.096 477.345 53.904C477.473 53.776 477.729 53.648 477.985 53.648C478.177 53.648 478.561 53.456 478.817 53.2C479.329 52.624 480.545 52.688 480.545 53.264C480.545 54.16 476.705 57.232 474.529 58.064C473.761 58.32 472.545 58.64 471.841 58.768C470.369 58.96 469.985 58.768 467.297 56.784C466.913 56.528 466.401 56.4 466.017 56.528C463.777 57.104 455.265 65.616 451.681 70.928C450.977 72.016 450.593 72.144 450.081 71.632C449.889 71.44 449.761 70.928 449.761 70.544C449.761 70.096 449.633 69.712 449.505 69.584C449.313 69.52 449.185 69.136 449.185 68.752C449.185 68.368 449.057 67.792 448.929 67.536C448.545 66.832 449.185 65.616 453.921 58.512C454.881 56.976 455.969 55.44 456.289 55.056C457.313 53.712 458.913 52.112 458.849 52.368C458.785 52.56 459.105 53.008 459.553 53.456ZM484.961 60.688C484.961 60.496 485.089 60.368 485.281 60.368C485.409 60.368 485.473 60.496 485.409 60.688C485.281 60.816 485.153 60.944 485.089 60.944C485.025 60.944 484.961 60.816 484.961 60.688ZM494.817 50.64C494.689 50.384 494.817 50.384 495.457 50.704C496.673 51.344 498.337 54.096 498.529 55.632C498.721 58.128 496.673 61.456 493.537 63.632C490.401 65.808 486.625 66.64 484.513 65.552C483.489 65.04 483.424 65.04 483.105 65.488C482.657 66.128 482.401 67.472 482.529 68.624C482.593 69.456 482.721 69.648 483.681 69.904C484.257 70.032 484.641 70.288 484.513 70.352C484.449 70.48 484.705 70.48 485.217 70.288C485.665 70.16 486.113 70.16 486.177 70.224C486.561 70.608 489.249 69.648 492.577 68.048C493.153 67.792 493.729 67.6 493.921 67.728C494.113 67.792 494.113 67.728 493.985 67.6C493.921 67.344 494.113 67.152 494.497 66.96C494.881 66.832 495.265 66.576 495.329 66.448C495.457 66.32 495.905 66.128 496.353 66C496.801 65.872 497.185 65.68 497.185 65.552C497.185 65.36 497.377 65.296 497.569 65.424C497.825 65.488 498.017 65.424 498.017 65.296C498.017 65.168 498.465 64.784 499.041 64.464C499.617 64.08 500.257 63.632 500.449 63.44C500.641 63.248 500.961 63.184 501.089 63.248C501.217 63.312 501.345 63.248 501.345 63.12C501.345 62.928 501.537 62.8 501.729 62.8C501.985 62.8 502.177 62.672 502.177 62.544C502.177 62.416 502.689 62.096 503.329 61.84C503.969 61.584 504.865 61.136 505.313 60.752C506.145 60.112 507.553 59.536 507.617 59.792C507.617 59.856 507.937 59.664 508.257 59.408C508.577 59.088 508.961 58.96 509.153 59.088C509.345 59.216 509.409 59.152 509.281 58.96C509.025 58.576 510.113 58 510.625 58.192C510.881 58.256 511.009 58.192 511.009 58C510.945 57.808 511.073 57.68 511.265 57.744C511.457 57.808 511.585 57.68 511.585 57.488C511.585 57.296 511.713 57.232 511.777 57.36C511.905 57.424 512.289 57.36 512.609 57.104C512.993 56.848 513.441 56.784 513.632 56.848C513.761 56.976 513.825 56.912 513.761 56.784C513.632 56.592 513.761 56.4 513.953 56.336C514.208 56.208 514.401 56.336 514.401 56.656C514.337 56.912 513.632 57.68 512.737 58.384C511.841 59.024 511.073 59.728 511.073 59.856C511.073 59.92 510.945 60.048 510.817 60.048C510.625 60.048 509.537 60.752 508.385 61.648C506.529 63.056 500.769 66.96 494.113 71.44C493.153 72.08 492.001 72.848 491.553 73.104C491.169 73.424 490.72 73.616 490.593 73.616C490.465 73.616 489.633 74 488.865 74.448C487.201 75.28 485.089 75.664 483.681 75.28C482.657 75.088 481.184 74.064 480.8 73.36C480.16 72.144 479.584 68.624 479.584 65.552C479.584 62.672 479.648 62.224 480.352 60.752C481.248 58.768 483.041 56.4 483.424 56.592C483.553 56.72 483.553 56.656 483.489 56.464C483.361 56.336 484.193 55.376 485.345 54.352C487.521 52.368 490.785 50.448 491.681 50.704C491.937 50.768 492.129 50.704 492.065 50.576C491.809 50.256 494.241 50.32 494.689 50.704C495.009 50.96 495.009 50.96 494.817 50.64ZM496.097 56.016C496.097 55.504 495.457 55.504 493.473 56.016C491.425 56.528 487.969 58.96 486.369 60.944C485.985 61.456 486.049 61.456 487.457 61.328C488.289 61.264 489.377 61.072 489.889 60.88C490.401 60.752 490.785 60.688 490.785 60.752C490.785 60.816 491.233 60.56 491.745 60.176C492.257 59.792 492.769 59.472 492.897 59.472C493.345 59.472 496.097 56.528 496.097 56.016Z" fill="#12070D"/>
<path d="M202.573 100.733C204.262 100.579 205.879 99.8761 207.493 99.4148C216.923 96.7207 226.6 95.0645 236.315 93.7911C272.392 89.0622 309.122 88.6656 345.451 89.046C381.938 89.4281 417.863 91.4336 454.147 95.0213C466.753 96.2677 479.393 97.3891 492.02 98.3604" stroke="url(#paint0_linear_14_63)" stroke-width="3" stroke-linecap="round"/>
<defs>
<linearGradient id="paint0_linear_14_63" x1="202.573" y1="94.8348" x2="492.02" y2="94.8348" gradientUnits="userSpaceOnUse">
<stop offset="0.563256" stop-color="#F7B142"/>
<stop offset="1" stop-color="#F7B142" stop-opacity="0.32"/>
</linearGradient>
</defs>
</svg>
