<svg width="161" height="120" viewBox="0 0 161 120" fill="none" xmlns="http://www.w3.org/2000/svg">
<path d="M22.5 96.75C22.5 101.126 24.2384 105.323 27.3327 108.417C30.4271 111.512 34.6239 113.25 39 113.25C43.3761 113.25 47.5729 111.512 50.6673 108.417C53.7616 105.323 55.5 101.126 55.5 96.75M22.5 96.75C22.5 92.3739 24.2384 88.1771 27.3327 85.0827C30.4271 81.9884 34.6239 80.25 39 80.25C43.3761 80.25 47.5729 81.9884 50.6673 85.0827C53.7616 88.1771 55.5 92.3739 55.5 96.75M22.5 96.75H6V47.25M55.5 96.75H105M105 96.75C105 101.126 106.738 105.323 109.833 108.417C112.927 111.512 117.124 113.25 121.5 113.25C125.876 113.25 130.073 111.512 133.167 108.417C136.262 105.323 138 101.126 138 96.75M105 96.75C105 92.3739 106.738 88.1771 109.833 85.0827C112.927 81.9884 117.124 80.25 121.5 80.25C125.876 80.25 130.073 81.9884 133.167 85.0827C136.262 88.1771 138 92.3739 138 96.75M138 96.75H154.5V63.75C154.5 59.3739 152.762 55.1771 149.667 52.0827C146.573 48.9884 142.376 47.25 138 47.25H129.75M6 47.25L22.5 6H96.75L129.75 47.25M6 47.25H129.75M80.25 47.25V6" stroke="#F5EDF0" stroke-width="12" stroke-linecap="round" stroke-linejoin="round"/>
</svg>
