<svg width="46" height="66" viewBox="0 0 46 66" fill="none" xmlns="http://www.w3.org/2000/svg">
<path d="M30.3333 14.0909H35.1406C40.4508 14.0909 44.7575 9.34536 44.7575 3.49323V1.72729H39.9501C34.6399 1.72729 30.3333 6.47287 30.3333 12.325V14.0909ZM30.3333 14.0909V20.2727" stroke="#F7B142" stroke-width="2" stroke-linecap="round" stroke-linejoin="round"/>
<path d="M15.5 65V50.4737M5.83333 31.1053V19M25.1667 31.1053V19M1 31.1053H30V40.7895C30 43.3579 28.9815 45.8211 27.1687 47.6372C25.3558 49.4534 22.8971 50.4737 20.3333 50.4737H10.6667C8.10291 50.4737 5.64415 49.4534 3.8313 47.6372C2.01845 45.8211 1 43.3579 1 40.7895V31.1053Z" stroke="#F5EDF0" stroke-width="2" stroke-linecap="round" stroke-linejoin="round"/>
</svg>
