<svg width="101" height="101" viewBox="0 0 101 101" fill="none" xmlns="http://www.w3.org/2000/svg">
<path d="M88.2 37.7998V29.3998C88.2 22.4698 82.53 16.7998 75.6 16.7998H58.8C55.566 16.7998 52.626 18.0598 50.4 20.0758C48.174 18.0598 45.234 16.7998 42 16.7998H25.2C18.27 16.7998 12.6 22.4698 12.6 29.3998V37.7998C5.67 37.7998 0 43.4698 0 50.3998V71.3998C0 78.3298 5.67 83.9998 12.6 83.9998V92.3998H21V83.9998H79.8V92.3998H88.2V83.9998C95.13 83.9998 100.8 78.3298 100.8 71.3998V50.3998C100.8 43.4698 95.13 37.7998 88.2 37.7998ZM58.8 25.1998H75.6C77.91 25.1998 79.8 27.0898 79.8 29.3998V41.0758C77.238 43.3858 75.6 46.7038 75.6 50.3998V58.7998H54.6V29.3998C54.6 27.0898 56.49 25.1998 58.8 25.1998ZM21 29.3998C21 27.0898 22.89 25.1998 25.2 25.1998H42C44.31 25.1998 46.2 27.0898 46.2 29.3998V58.7998H25.2V50.3998C25.2 46.7038 23.562 43.3858 21 41.0758V29.3998ZM92.4 71.3998C92.4 73.7098 90.51 75.5998 88.2 75.5998H12.6C10.29 75.5998 8.4 73.7098 8.4 71.3998V50.3998C8.4 48.0898 10.29 46.1998 12.6 46.1998C14.91 46.1998 16.8 48.0898 16.8 50.3998V67.1998H84V50.3998C84 48.0898 85.89 46.1998 88.2 46.1998C90.51 46.1998 92.4 48.0898 92.4 50.3998V71.3998Z" fill="#F7B142"/>
</svg>
