<svg width="101" height="101" viewBox="0 0 101 101" fill="none" xmlns="http://www.w3.org/2000/svg">
<path d="M92.4 71.3999V58.7999M92.4 58.7999H8.40002M92.4 58.7999H50.4V37.7999H79.8C83.1418 37.7999 86.3466 39.1274 88.7096 41.4904C91.0725 43.8533 92.4 47.0582 92.4 50.3999V58.7999ZM8.40002 33.5999V71.3999M21 37.7999C21 40.0277 21.885 42.1643 23.4603 43.7396C25.0356 45.3149 27.1722 46.1999 29.4 46.1999C31.6278 46.1999 33.7644 45.3149 35.3397 43.7396C36.915 42.1643 37.8 40.0277 37.8 37.7999C37.8 35.5721 36.915 33.4355 35.3397 31.8602C33.7644 30.2849 31.6278 29.3999 29.4 29.3999C27.1722 29.3999 25.0356 30.2849 23.4603 31.8602C21.885 33.4355 21 35.5721 21 37.7999Z" stroke="#F7B142" stroke-width="8.4" stroke-linecap="round" stroke-linejoin="round"/>
</svg>
