<svg width="48" height="60" viewBox="0 0 48 60" fill="none" xmlns="http://www.w3.org/2000/svg">
<path d="M18 21C23.5228 21 28 16.5228 28 11C28 5.47715 23.5228 1 18 1C12.4772 1 8 5.47715 8 11C8 16.5228 12.4772 21 18 21Z" stroke="#F7B142" stroke-width="2" stroke-linecap="round" stroke-linejoin="round"/>
<path d="M14.0864 14.8276V21.9679" stroke="#1B1117" stroke-width="3" stroke-linecap="round"/>
<path d="M22.53 16.5845V22.6763" stroke="#1B1117" stroke-width="3" stroke-linecap="round"/>
<path d="M20.9149 18.6812V22.648" stroke="#1B1117" stroke-width="3" stroke-linecap="round"/>
<path d="M16.8064 18.823C16.8064 19.1485 16.8255 19.4628 16.8772 19.7848C16.9351 20.1447 17.058 20.4756 17.1527 20.8253C17.2285 21.1053 17.3164 21.38 17.3164 21.6722C17.3164 21.7472 17.3164 21.8222 17.3164 21.8973C17.3164 21.9785 17.1385 21.9173 17.1023 21.8831C16.9836 21.771 17.0331 21.4791 17.0331 21.3306C17.0331 21.2674 17.0742 21.199 17.096 21.1401C17.1386 21.0252 17.1314 20.9245 17.1606 20.808C17.1825 20.7204 17.1528 20.622 17.2031 20.5451C17.297 20.4015 17.4731 20.2899 17.6139 20.1972C17.816 20.0641 18.0465 19.9348 18.2955 19.928C18.4952 19.9226 18.5352 20.4227 18.5631 20.553C18.6594 21.0023 18.7898 21.5045 18.7898 21.9681" stroke="#1B1117" stroke-width="3" stroke-linecap="round"/>
<path d="M14.25 35.1501V12.6251C14.25 11.5709 14.6688 10.5599 15.4143 9.8144C16.1597 9.06894 17.1708 8.65015 18.225 8.65015C19.2792 8.65015 20.2903 9.06894 21.0358 9.8144C21.7812 10.5599 22.2 11.5709 22.2 12.6251V32.5001M22.2 31.1751V25.8751C22.2 24.8209 22.6188 23.8099 23.3643 23.0644C24.1097 22.3189 25.1208 21.9001 26.175 21.9001C27.2292 21.9001 28.2403 22.3189 28.9858 23.0644C29.7312 23.8099 30.15 24.8209 30.15 25.8751V32.5001M30.15 28.5251C30.15 27.4709 30.5688 26.4599 31.3143 25.7144C32.0597 24.9689 33.0708 24.5501 34.125 24.5501C35.1792 24.5501 36.1903 24.9689 36.9357 25.7144C37.6812 26.4599 38.1 27.4709 38.1 28.5251V32.5001" stroke="#F5EDF0" stroke-width="2" stroke-linecap="round" stroke-linejoin="round"/>
<path d="M38.1 31.175C38.1 30.1208 38.5188 29.1097 39.2643 28.3643C40.0097 27.6188 41.0208 27.2 42.075 27.2C43.1292 27.2 44.1403 27.6188 44.8857 28.3643C45.6312 29.1097 46.05 30.1208 46.05 31.175V43.1C46.05 47.3169 44.3748 51.3612 41.393 54.343C38.4112 57.3248 34.3669 59 30.15 59H24.85H25.4012C22.768 59.0004 20.1759 58.3469 17.8577 57.0981C15.5394 55.8492 13.5677 54.0442 12.1194 51.845L11.6 51.05C10.7732 49.7815 7.87057 44.7218 2.8921 35.8708C2.38449 34.9686 2.2489 33.9039 2.51416 32.9032C2.77942 31.9025 3.42461 31.0448 4.3125 30.5125C5.25863 29.9464 6.36653 29.712 7.46086 29.8464C8.55519 29.9808 9.57346 30.4763 10.3545 31.2545L14.25 35.15M6.3 8.65L3.65 6M3.65 19.25H1M30.15 8.65L32.8 6M32.8 16.6H35.45" stroke="#F5EDF0" stroke-width="2" stroke-linecap="round" stroke-linejoin="round"/>
</svg>
