<svg width="144" height="144" viewBox="0 0 144 144" fill="none" xmlns="http://www.w3.org/2000/svg">
<path d="M126 96.0001V48.0001C125.998 45.8958 125.442 43.829 124.389 42.0071C123.336 40.1852 121.822 38.6723 120 37.6201L78 13.6201C76.1758 12.5669 74.1064 12.0125 72 12.0125C69.8936 12.0125 67.8242 12.5669 66 13.6201L24 37.6201C22.1776 38.6723 20.6639 40.1852 19.6108 42.0071C18.5577 43.829 18.0022 45.8958 18 48.0001V96.0001C18.0022 98.1045 18.5577 100.171 19.6108 101.993C20.6639 103.815 22.1776 105.328 24 106.38L66 130.38C67.8242 131.433 69.8936 131.988 72 131.988C74.1064 131.988 76.1758 131.433 78 130.38L120 106.38C121.822 105.328 123.336 103.815 124.389 101.993C125.442 100.171 125.998 98.1045 126 96.0001Z" stroke="#F5EDF0" stroke-width="12" stroke-linecap="round" stroke-linejoin="round"/>
<path d="M19.6201 41.7598L72.0001 72.0598L124.38 41.7598" stroke="#F5EDF0" stroke-width="12" stroke-linecap="round" stroke-linejoin="round"/>
<path d="M72 132.48V72" stroke="#F5EDF0" stroke-width="12" stroke-linecap="round" stroke-linejoin="round"/>
</svg>
