<svg width="101" height="101" viewBox="0 0 101 101" fill="none" xmlns="http://www.w3.org/2000/svg">
<path d="M87.2424 42.655L81.4968 25.414C80.6633 22.9044 79.0602 20.7213 76.9151 19.1749C74.77 17.6285 72.1922 16.7975 69.5478 16.7998H31.2522C28.6079 16.7975 26.03 17.6285 23.8849 19.1749C21.7399 20.7213 20.1367 22.9044 19.3032 25.414L13.5576 42.655C12.0304 43.294 10.7261 44.3701 9.80847 45.748C8.89085 47.1259 8.40085 48.7443 8.40002 50.3998V71.3998C8.40002 74.5624 10.1766 77.2882 12.7638 78.7204C12.7092 78.9976 12.6 79.2496 12.6 79.5394V88.1998C12.6 89.3137 13.0425 90.382 13.8302 91.1697C14.6178 91.9573 15.6861 92.3998 16.8 92.3998H21C22.1139 92.3998 23.1822 91.9573 23.9699 91.1697C24.7575 90.382 25.2 89.3137 25.2 88.1998V79.7998H75.6V88.1998C75.6 89.3137 76.0425 90.382 76.8302 91.1697C77.6178 91.9573 78.6861 92.3998 79.8 92.3998H84C85.1139 92.3998 86.1822 91.9573 86.9699 91.1697C87.7575 90.382 88.2 89.3137 88.2 88.1998V79.5394C88.2 79.2496 88.0908 78.9934 88.0362 78.7204C89.3534 78.0038 90.4535 76.9461 91.2213 75.6581C91.9891 74.3701 92.3962 72.8993 92.4 71.3998V50.3998C92.4 46.918 90.2664 43.9276 87.2424 42.655ZM16.8 71.3998V50.3998H84L84.0084 71.3998H16.8ZM31.2522 25.1998H69.5436C71.3538 25.1998 72.9582 26.3506 73.5294 28.0726L78.1746 41.9998H22.6254L27.2664 28.0726C27.5451 27.2359 28.08 26.5082 28.7954 25.9926C29.5108 25.477 30.3704 25.1996 31.2522 25.1998Z" fill="#F7B142"/>
<path d="M27.3 67.2001C30.7794 67.2001 33.6 64.3795 33.6 60.9001C33.6 57.4207 30.7794 54.6001 27.3 54.6001C23.8206 54.6001 21 57.4207 21 60.9001C21 64.3795 23.8206 67.2001 27.3 67.2001Z" fill="#F7B142"/>
<path d="M73.5 67.2001C76.9794 67.2001 79.8 64.3795 79.8 60.9001C79.8 57.4207 76.9794 54.6001 73.5 54.6001C70.0206 54.6001 67.2 57.4207 67.2 60.9001C67.2 64.3795 70.0206 67.2001 73.5 67.2001Z" fill="#F7B142"/>
</svg>
