<svg width="67" height="42" viewBox="0 0 67 42" fill="none" xmlns="http://www.w3.org/2000/svg">
<path d="M13.3636 39.0909H7.18182C5.5423 39.0909 3.96993 38.4396 2.81061 37.2803C1.6513 36.121 1 34.5486 1 32.9091V8.18182C1 6.5423 1.6513 4.96993 2.81061 3.81061C3.96993 2.6513 5.5423 2 7.18182 2H17.0418M44.2727 2H50.4545C52.0941 2 53.6664 2.6513 54.8257 3.81061C55.9851 4.96993 56.6364 6.5423 56.6364 8.18182V32.9091C56.6364 34.5486 55.9851 36.121 54.8257 37.2803C53.6664 38.4396 52.0941 39.0909 50.4545 39.0909H40.5945" stroke="#F5EDF0" stroke-width="2" stroke-linecap="round" stroke-linejoin="round"/>
<path d="M65 23.6362V17.4543" stroke="#F5EDF0" stroke-width="4" stroke-linecap="round" stroke-linejoin="round"/>
<path d="M31.909 2L19.5454 20.5455H38.0909L25.7272 39.0909" stroke="#F7B142" stroke-width="4" stroke-linecap="round" stroke-linejoin="round"/>
</svg>
