<svg width="69" height="72" viewBox="0 0 69 72" fill="none" xmlns="http://www.w3.org/2000/svg">
<path d="M39.25 17H40.6667M52 4.25V5.66667M63.3333 17H64.75M42.9333 7.93333L43.925 8.925M61.0667 7.93333L60.075 8.925M48.7417 24.0833H55.2583M47.75 22.6667C46.5607 21.7747 45.6821 20.5311 45.2389 19.112C44.7956 17.693 44.81 16.1704 45.2802 14.7601C45.7503 13.3497 46.6523 12.123 47.8583 11.2537C49.0643 10.3844 50.5133 9.91667 52 9.91667C53.4867 9.91667 54.9357 10.3844 56.1417 11.2537C57.3477 12.123 58.2497 13.3497 58.7198 14.7601C59.19 16.1704 59.2044 17.693 58.7611 19.112C58.3179 20.5311 57.4393 21.7747 56.25 22.6667C55.6969 23.2142 55.2804 23.8842 55.0343 24.6225C54.7882 25.3609 54.7194 26.1468 54.8333 26.9167C54.8333 27.6681 54.5348 28.3888 54.0035 28.9201C53.4721 29.4515 52.7514 29.75 52 29.75C51.2486 29.75 50.5279 29.4515 49.9965 28.9201C49.4652 28.3888 49.1667 27.6681 49.1667 26.9167C49.2806 26.1468 49.2118 25.3609 48.9657 24.6225C48.7196 23.8842 48.3031 23.2142 47.75 22.6667Z" stroke="#F7B142" stroke-width="2" stroke-linecap="round" stroke-linejoin="round"/>
<path d="M48.5833 58.75V54.3333C48.5833 51.9906 47.6527 49.7438 45.9961 48.0872C44.3395 46.4307 42.0927 45.5 39.75 45.5H22.0833C19.7406 45.5 17.4938 46.4307 15.8372 48.0872C14.1807 49.7438 13.25 51.9906 13.25 54.3333V58.75" stroke="#F5EDF0" stroke-width="2" stroke-linecap="round" stroke-linejoin="round"/>
<path d="M30.9167 39.611C35.7952 39.611 39.75 35.6562 39.75 30.7777C39.75 25.8992 35.7952 21.9443 30.9167 21.9443C26.0382 21.9443 22.0834 25.8992 22.0834 30.7777C22.0834 35.6562 26.0382 39.611 30.9167 39.611Z" stroke="#F5EDF0" stroke-width="2" stroke-linecap="round" stroke-linejoin="round"/>
</svg>
