<svg width="70" height="70" viewBox="0 0 70 70" fill="none" xmlns="http://www.w3.org/2000/svg">
<path d="M58.3333 8.75H11.6666C8.44498 8.75 5.83331 11.3617 5.83331 14.5833V43.75C5.83331 46.9717 8.44498 49.5833 11.6666 49.5833H58.3333C61.555 49.5833 64.1666 46.9717 64.1666 43.75V14.5833C64.1666 11.3617 61.555 8.75 58.3333 8.75Z" stroke="#F5EDF0" stroke-width="2" stroke-linecap="round" stroke-linejoin="round"/>
<path d="M23.3333 61.25H46.6666" stroke="#F5EDF0" stroke-width="2" stroke-linecap="round" stroke-linejoin="round"/>
<path d="M35 49.5833V61.2499" stroke="#F5EDF0" stroke-width="2" stroke-linecap="round" stroke-linejoin="round"/>
<path d="M35 31C36.1046 31 37 30.1046 37 29C37 27.8954 36.1046 27 35 27C33.8954 27 33 27.8954 33 29C33 30.1046 33.8954 31 35 31Z" stroke="#F7B142" stroke-width="2" stroke-linecap="round" stroke-linejoin="round"/>
<path d="M39.24 24.7599C39.7979 25.3172 40.2404 25.9789 40.5424 26.7073C40.8443 27.4357 40.9997 28.2164 40.9997 29.0049C40.9997 29.7934 40.8443 30.5742 40.5424 31.3026C40.2404 32.031 39.7979 32.6927 39.24 33.2499M30.76 33.2399C30.2021 32.6827 29.7596 32.021 29.4576 31.2926C29.1557 30.5642 29.0003 29.7834 29.0003 28.9949C29.0003 28.2064 29.1557 27.4257 29.4576 26.6973C29.7596 25.9689 30.2021 25.3072 30.76 24.7499M42.07 21.9299C43.9447 23.8052 44.9979 26.3483 44.9979 28.9999C44.9979 31.6516 43.9447 34.1947 42.07 36.0699M27.93 36.0699C26.0553 34.1947 25.0021 31.6516 25.0021 28.9999C25.0021 26.3483 26.0553 23.8052 27.93 21.9299" stroke="#F7B142" stroke-width="2" stroke-linecap="round" stroke-linejoin="round"/>
</svg>
