<svg width="119" height="128" viewBox="0 0 119 128" fill="none" xmlns="http://www.w3.org/2000/svg">
<path d="M35.51 6.12744C35.51 12.5603 38.0654 18.7296 42.6141 23.2783C47.1628 27.827 53.3322 30.3824 59.765 30.3824C66.1978 30.3824 72.3672 27.827 76.9159 23.2783C81.4646 18.7296 84.02 12.5603 84.02 6.12744M11.255 12.1912H17.3188M102.211 12.1912H108.275M59.765 48.5737V54.6374M91.2965 37.6589L95.5836 41.946M28.2335 37.6589L23.9889 41.9036M11.255 97.0837H108.275M47.6375 72.8287L41.5738 121.339M71.8925 72.8287L77.9563 121.339M12.9529 121.339H106.577C107.499 121.339 108.408 121.129 109.237 120.724C110.065 120.32 110.79 119.732 111.357 119.005C111.925 118.279 112.318 117.432 112.509 116.531C112.7 115.629 112.683 114.696 112.459 113.801L103.363 77.4189C103.035 76.1077 102.278 74.9438 101.212 74.1121C100.146 73.2805 98.8333 72.8287 97.4815 72.8287H22.0485C20.6967 72.8287 19.3837 73.2805 18.318 74.1121C17.2524 74.9438 16.4951 76.1077 16.1667 77.4189L7.07104 113.801C6.84706 114.696 6.82985 115.629 7.02073 116.531C7.21161 117.432 7.60555 118.279 8.17261 119.005C8.73967 119.732 9.46492 120.32 10.2932 120.724C11.1216 121.129 12.0311 121.339 12.9529 121.339Z" stroke="#F5EDF0" stroke-width="12.1275" stroke-linecap="round" stroke-linejoin="round"/>
</svg>
